<?xml version="1.0" encoding="UTF-8"?>
<svg id="Layer_1" data-name="Layer 1" xmlns="http://www.w3.org/2000/svg" viewBox="0 0 1241 1202">
  <defs>
    <style>
      .cls-1 {
        fill: none;
        stroke: #e6e6e6;
        stroke-miterlimit: 10;
        stroke-width: 21px;
      }

      .cls-2 {
        fill: #e6e6e6;
        fill-rule: evenodd;
      }

      .cls-3 {
        fill: #1a1a1a;
      }
    </style>
  </defs>
  <g>
    <rect class="cls-3" x=".5" y=".5" width="1240" height="1201"/>
    <path d="m1240,1v1200H1V1h1239m1-1H0v1202h1241V0h0Z"/>
  </g>
  <path class="cls-2" d="m706.9,499.33l-228.86,88.29c-5.65,2.18-5.6,10.17.07,12.29l55.76,20.81,21.59,69.42c1.38,4.44,6.82,6.09,10.43,3.14l31.09-25.34c3.26-2.66,7.9-2.79,11.3-.31l56.07,40.7c3.86,2.81,9.33.69,10.29-3.97l41.07-197.55c1.06-5.09-3.95-9.35-8.8-7.47Zm-43.65,46.2l-89.94,83.61c-3.16,2.94-5.2,6.88-5.78,11.16l-3.06,22.7c-.41,3.03-4.67,3.33-5.51.4l-11.78-41.4c-1.35-4.72.62-9.77,4.79-12.34l108.99-67.12c1.96-1.21,3.97,1.45,2.29,3Z"/>
  <g>
    <path class="cls-1" d="m766.06,470.6l255.58,68.59c25.11,6.74,48.43-15.75,42.45-41.05-40.27-170.41-176.19-303.83-347.97-340.47-25.15-5.36-47.08,17.76-40.41,42.59l66.03,246.01c3.18,11.87,12.45,21.14,24.32,24.32Z"/>
    <path class="cls-1" d="m502.89,446.28l66.23-246.78c6.64-24.73-15.09-47.77-40.18-42.64-173.94,35.52-311.81,170.13-352.07,342.3-5.92,25.3,17.37,47.75,42.46,41.01l259.23-69.57c11.87-3.18,21.14-12.45,24.32-24.32Z"/>
    <path class="cls-1" d="m741.74,733.77l-73.58,274.17c-6.58,24.51,14.74,47.59,39.66,42.76,185.84-36.02,331.39-184.94,362.39-372.52,4.08-24.69-18.75-45.33-42.91-38.84l-261.23,70.11c-11.87,3.18-21.14,12.45-24.32,24.32Z"/>
    <path class="cls-1" d="m478.57,709.45l-264.82-71.07c-24.14-6.48-46.92,14.12-42.9,38.78,30.85,189.34,178.38,339.49,366.38,374.25,24.85,4.59,45.97-18.39,39.42-42.8l-73.76-274.84c-3.18-11.87-12.45-21.14-24.32-24.32Z"/>
  </g>
</svg>