<?xml version="1.0" encoding="UTF-8"?>
<svg id="Layer_1" data-name="Layer 1" xmlns="http://www.w3.org/2000/svg" viewBox="0 0 390 390">
  <defs>
    <style>
      .cls-1 {
        fill: none;
        stroke: #e6e6e6;
        stroke-miterlimit: 10;
        stroke-width: 21px;
      }

      .cls-2 {
        fill: #1a1a1a;
      }
    </style>
  </defs>
  <circle class="cls-2" cx="195" cy="195" r="195"/>
  <g>
    <path class="cls-1" d="m246.39647,147.86258l90.26197,24.22475c8.86895,2.38027,17.10513-5.5622,14.99344-14.49891-14.22055-60.18159-62.2242-107.30142-122.89053-120.24124-8.88069-1.8942-16.62614,6.27253-14.2724,15.04263l23.31786,86.88311c1.12483,4.19114,4.39853,7.46484,8.58967,8.58967Z"/>
    <path class="cls-1" d="m153.45154,139.27292l23.39055-87.15353c2.34438-8.73519-5.33015-16.86903-14.19154-15.05927-61.43094,12.54602-110.11956,60.08503-124.33809,120.88996-2.08928,8.9347,6.13457,16.86212,14.99668,14.48369l91.55275-24.57119c4.19114-1.12483,7.46483-4.39852,8.58966-8.58966Z"/>
    <path class="cls-1" d="m237.8068,240.80751l-25.98717,96.82882c-2.32338,8.65696,5.20692,16.80738,14.00651,15.10202,65.63257-12.7196,117.03596-65.31525,127.98343-131.56262,1.44067-8.71804-6.62093-16.00876-15.1552-13.71831l-92.25791,24.76043c-4.19114,1.12483-7.46484,4.39853-8.58966,8.58967Z"/>
    <path class="cls-1" d="m144.86186,232.21784l-93.52457-25.10034c-8.52414-2.28773-16.57042,4.98624-15.15126,13.69719,10.89431,66.87033,62.99639,119.89505,129.39296,132.1713,8.77673,1.62275,16.23618-6.49458,13.92261-15.11501l-26.05008-97.06347c-1.12483-4.19114-4.39853-7.46485-8.58967-8.58967Z"/>
  </g>
</svg>