<?xml version="1.0" encoding="UTF-8"?>
<svg id="Layer_1" data-name="Layer 1" xmlns="http://www.w3.org/2000/svg" viewBox="0 0 1725.17 588.86">
  <defs>
    <style>
      .cls-1 {
        fill: #f6921e;
      }
    </style>
  </defs>
  <path class="cls-1" d="m340.55,58.47c.18-1.94.29-3.85.29-5.79,0-2.75-.29-5.46-.72-8.11-.72-5.35-5.38-16.35-8.28-20.48-4.83-6.82-11.28-12.31-18.64-16.26-9.64-5.18-20.85-7.83-32.68-7.83H60.33c-15.78,0-30.49,4.72-41.75,13.84-5.6,4.57-10.3,10.27-13.57,16.89C1.77,37.33,0,44.85,0,52.68c0,5.59.72,11.15,2.36,16.59,1.24,4.09,2.93,8.06,5.03,12.09,6.34,12.06,16.06,25.02,31.65,46.77l.13.18,73.64,98.88v133.98c0,9.11,1.35,17.51,4.11,25.05,4.09,11.34,11.56,20.63,21.09,26.58,9.51,6.01,20.74,8.72,32.41,8.72,7.78,0,15.34-1.2,22.36-3.8,10.53-3.83,19.82-11.02,25.97-20.9,6.21-9.86,9.29-22.03,9.27-35.65v-133.98l73.63-98.88.15-.18c13.86-19.32,23.06-31.73,29.4-42.69,2.1-3.65,3.87-7.19,5.33-10.77,2.38-6.4,3.78-12.79,4.02-16.19m142.75,165.59c0-28.55-23.15-51.71-51.71-51.71h-85.05c-28.55,0-51.71,23.15-51.71,51.71s23.15,51.71,51.71,51.71h85.05c28.55,0,51.71-23.15,51.71-51.71m338.86,6.32c14.03-23.3,21.01-51.36,21.01-81.79,0-23.6-4.39-44.7-12.31-62.99-11.87-27.45-31.73-48.3-55.38-61.96-23.67-13.7-51.04-20.41-78.77-20.41h-108.45c-14.51,0-28.83,5-39.74,14.99-5.44,4.98-9.99,11.23-13.09,18.45-3.12,7.23-4.77,15.41-4.77,24.17v300.29c0,9.11,1.35,17.51,4.11,25.05,4.09,11.34,11.56,20.63,21.09,26.58,9.51,6.01,20.74,8.72,32.41,8.72,7.78,0,15.34-1.2,22.36-3.8,10.53-3.83,19.82-11.02,25.97-20.9,6.21-9.86,9.29-22.03,9.29-35.65v-67.73h53.57c22.45,0,42.82-3.72,60.72-10.82,26.86-10.6,48-28.9,61.99-52.21m-122.83,157.91c2.95,0,5.97.66,5.97,4.18,0,4.24-3.34,4.46-6.97,4.46h-4.63v-8.66h5.64l-.02.02Zm.63-3h-8.85c-.92,0-1.18.37-1.18,1.07v23.02c0,1.46.68,2.58,1.88,2.58s1.88-1.12,1.88-2.58v-9.38h4.89l6.38,10.45c.68,1.12,1.46,1.51,2.19,1.51,1.2,0,1.9-.81,1.9-1.57,0-.7-.37-1.27-.83-1.94l-5.51-8.59c3.26-.44,6.34-2.45,6.34-7.21s-3.02-7.37-9.09-7.37m-1.51-6.16c10.08,0,18.53,8.46,18.53,18.89s-8.44,18.91-18.53,18.91-18.54-8.46-18.54-18.91,8.46-18.89,18.54-18.89m0-3.76c-12.5,0-22.67,10.14-22.67,22.66s10.16,22.69,22.67,22.69,22.67-10.14,22.67-22.69-10.16-22.66-22.67-22.66m397.83-58.84l-48.79-52.59h1.31c8.22,0,15.95-1.18,23.01-3.59,10.58-3.61,19.67-10.29,25.68-19.28,6.05-8.98,8.94-19.89,8.92-31.47,0-7.72-1.27-15.12-3.93-21.88-3.93-10.16-11.23-18.75-20.66-24.26-9.44-5.57-20.72-8.2-33.03-8.2h-2.56l46.77-50.42.06-.06c6.34-6.95,11.78-13.64,15.8-21.38,4.04-7.71,6.32-16.54,6.27-25.86,0-3.87-.61-7.82-1.77-12.02-.52-1.9-1.18-3.85-1.97-5.83-.41-1.29-.79-2.58-1.29-3.83-3.94-10.08-11.15-18.67-20.55-24.26-9.42-5.64-20.74-8.41-33.11-8.39h-135.16c-14.51,0-28.83,5-39.74,14.99-5.46,4.98-9.97,11.23-13.09,18.45-3.12,7.23-4.77,15.41-4.77,24.17v299.76c0,8.76,1.66,16.94,4.77,24.17,4.66,10.86,12.54,19.41,21.86,25.02,9.35,5.62,20.07,8.42,30.97,8.42h138.44c8.26,0,16.02-1.22,23.1-3.71,10.6-3.69,19.61-10.45,25.59-19.41,2.86-4.26,5-8.94,6.47-13.9.68-1.79,1.29-3.58,1.77-5.31,1.14-4.2,1.75-8.15,1.77-12.02.06-9.36-2.25-18.18-6.27-25.88-4.02-7.74-9.46-14.43-15.8-21.38l-.06-.06.02.02Zm276,0l-48.79-52.59h1.31c8.22,0,15.95-1.18,23.01-3.59,10.56-3.61,19.65-10.29,25.66-19.28,6.05-8.98,8.94-19.89,8.94-31.47,0-7.72-1.27-15.12-3.93-21.88-3.93-10.16-11.23-18.75-20.66-24.26-9.44-5.57-20.72-8.2-33.02-8.2h-2.56l46.77-50.42.06-.06c6.34-6.95,11.78-13.64,15.78-21.38,4.04-7.71,6.32-16.54,6.29-25.86-.02-3.87-.63-7.82-1.77-12.02-.53-1.9-1.18-3.85-1.97-5.83-.41-1.29-.79-2.58-1.29-3.83-3.93-10.08-11.15-18.67-20.55-24.26-9.4-5.64-20.72-8.41-33.11-8.39h-135.16c-14.53,0-28.83,5-39.76,14.99-5.46,4.98-9.97,11.23-13.09,18.45-3.12,7.23-4.77,15.41-4.76,24.17v299.76c0,8.76,1.66,16.94,4.76,24.17,4.66,10.86,12.54,19.41,21.86,25.02,9.33,5.62,20.07,8.42,30.97,8.42h138.44c8.26,0,16.02-1.22,23.1-3.71,10.6-3.69,19.61-10.45,25.59-19.41,2.88-4.26,5-8.94,6.49-13.9.68-1.79,1.29-3.58,1.77-5.31,1.16-4.2,1.75-8.15,1.77-12.02.06-9.36-2.23-18.18-6.27-25.88-4.02-7.74-9.44-14.43-15.8-21.38l-.06-.06v.02Zm330.74,3.28l-61.74-66.55c20.65-7.48,38.21-19.54,51.45-35.45,17.84-21.38,27.54-49.37,27.5-80.69,0-19.71-3.48-38.07-10.23-54.51-10.1-24.66-27.61-44.85-50.51-58.49-22.9-13.68-50.97-20.9-82.44-20.9h-106.27c-14.51,0-28.83,5-39.74,14.99-5.44,4.98-9.99,11.23-13.09,18.45-3.12,7.23-4.79,15.41-4.77,24.17v300.29c0,9.11,1.35,17.51,4.11,25.05,4.07,11.34,11.56,20.63,21.09,26.58,9.51,6.01,20.76,8.72,32.41,8.72h43.89c5.29,0,10.36-.87,14.99-2.69,6.95-2.69,12.83-7.69,16.61-14.14,3.8-6.45,5.6-14.18,5.6-22.6v-7.71l34.49,32,.04.04c4.76,4.33,9.33,8.07,14.64,10.8,5.27,2.75,11.3,4.31,17.7,4.3h47.71c10.32,0,19.54-2.21,27.25-5.99,11.61-5.7,19.5-14.62,24.35-23.36,2.45-4.41,4.18-8.79,5.35-12.98,1.16-4.2,1.75-8.15,1.77-12.02.04-9.35-2.25-18.16-6.29-25.86-4.02-7.76-9.46-14.43-15.8-21.38l-.06-.06v-.02Z"/>
  <g>
    <path class="cls-1" d="m1196.72,488.34v5.19c0,8.08-1.33,15.04-3.98,20.89-2.42,5.39-5.77,9.71-10.04,12.98l13.85,10.56,1.1.87-.98.92-7.56,6.98-.75.63-.75-.58-18-13.73c-2.85.62-5.83.92-8.94.92-5.42,0-10.41-.92-14.95-2.77-4.54-1.88-8.37-4.6-11.48-8.14-3.12-3.5-5.52-7.75-7.21-12.75-1.69-4.96-2.54-10.58-2.54-16.85v-5.19c0-6.23.85-11.85,2.54-16.85,1.69-5,4.08-9.27,7.15-12.81s6.89-6.25,11.43-8.14c4.54-1.88,9.52-2.83,14.94-2.83,2.77,0,5.42.25,7.96.75,2.5.46,4.91,1.15,7.21,2.08,4.58,1.89,8.41,4.6,11.48,8.14,3.08,3.54,5.44,7.83,7.1,12.87,1.62,5,2.42,10.62,2.42,16.85Zm-13.39,5.08v-5.19c0-4.73-.52-8.9-1.56-12.52-1.04-3.58-2.54-6.58-4.5-9-.66-.77-1.35-1.49-2.08-2.16-.73-.67-1.52-1.28-2.37-1.82-.85-.54-1.73-1-2.65-1.38-2.81-1.23-6.02-1.85-9.64-1.85-.69,0-1.38.03-2.05.09-.67.06-1.33.13-1.96.23-.63.1-1.25.21-1.85.35-.6.14-1.18.3-1.76.49s-1.15.42-1.73.69c-2.73,1.23-5.1,3.02-7.1,5.37-2,2.42-3.54,5.42-4.62,9-1.08,3.62-1.62,7.79-1.62,12.52v5.19c0,2.39.13,4.63.4,6.72.27,2.1.67,4.05,1.21,5.86,1.12,3.58,2.67,6.58,4.67,9,2,2.39,4.38,4.19,7.15,5.42,1.39.62,2.86,1.08,4.42,1.38,1.56.31,3.2.46,4.93.46.88,0,1.76-.04,2.62-.12s1.7-.19,2.51-.35c.81-.15,1.59-.35,2.34-.58.75-.23,1.47-.5,2.16-.81,2.77-1.23,5.12-3.04,7.04-5.42,1.96-2.42,3.44-5.42,4.44-9,1.04-3.62,1.56-7.81,1.56-12.58Z"/>
    <path class="cls-1" d="m1253.79,532.83l-.35-.63c-.23-.46-.42-.95-.58-1.47-.15-.52-.31-1.11-.46-1.76-.04-.23-.09-.48-.14-.75-.06-.27-.11-.52-.14-.75-.66.54-1.33,1.04-2.02,1.5-1.42,1-2.98,1.89-4.67,2.65-1.69.73-3.54,1.31-5.54,1.73-1,.19-2.02.35-3.06.46-1.04.12-2.1.17-3.17.17-.92,0-1.82-.03-2.68-.09s-1.71-.15-2.54-.29c-.83-.14-1.64-.3-2.42-.49s-1.51-.4-2.16-.63c-2.77-1-5.12-2.35-7.04-4.04-1.96-1.73-3.47-3.76-4.53-6.09-1.06-2.33-1.59-4.82-1.59-7.47,0-3.42.69-6.46,2.08-9.12.69-1.31,1.54-2.52,2.54-3.63,1-1.12,2.15-2.12,3.46-3,2.54-1.77,5.71-3.1,9.52-3.98,1.31-.31,2.65-.56,4.04-.75,1.38-.19,2.82-.34,4.3-.43,1.48-.1,3.03-.14,4.64-.14h10.27v-3.46c0-1.62-.27-3.04-.81-4.27-.54-1.23-1.35-2.29-2.42-3.17-.73-.61-1.57-1.12-2.51-1.53-.94-.4-2.04-.71-3.29-.92-1.25-.21-2.61-.32-4.07-.32-.54,0-1.05.02-1.53.06-.48.04-.96.09-1.44.14-.48.06-.94.14-1.38.23-.44.1-.86.2-1.24.32-.58.15-1.12.34-1.62.55-.5.21-.97.43-1.41.66-.44.23-.86.48-1.24.75-.38.27-.74.56-1.07.87-.33.31-.63.62-.89.95-.27.33-.5.66-.69,1.01-.62,1-.92,2.06-.92,3.17v1.15h-13.04v-1.15c0-2.42.63-4.81,1.9-7.15,1.23-2.35,2.98-4.44,5.25-6.29,2.27-1.85,5.08-3.33,8.42-4.44,3.46-1.15,7.31-1.73,11.54-1.73,3.85,0,7.39.44,10.62,1.33,1.08.31,2.12.65,3.12,1.04.92.39,1.79.83,2.6,1.33.81.5,1.58,1.06,2.31,1.67,2.15,1.77,3.85,4,5.08,6.69.61,1.35,1.08,2.79,1.38,4.33.31,1.54.46,3.19.46,4.96v27.99c0,1.96.17,4.04.52,6.23.38,2.15.9,4,1.56,5.54l.12.23v2.25h-13.04Zm-23.66-11.14c1.46.46,3.19.69,5.19.69s3.81-.23,5.54-.69c1.73-.5,3.31-1.13,4.73-1.9,1.42-.77,2.65-1.63,3.69-2.6.92-.88,1.67-1.81,2.25-2.77v-10.73h-8.42c-1.62,0-3.14.06-4.59.17-1.44.12-2.78.28-4.01.49-1.23.21-2.36.47-3.38.78-1.02.31-1.95.67-2.8,1.1-3.12,1.58-4.67,3.98-4.67,7.21,0,1.27.23,2.46.69,3.58.12.27.24.53.38.78.13.25.29.49.46.72.17.23.37.45.58.66.21.21.43.41.66.61,1,.77,2.23,1.41,3.69,1.9Z"/>
    <path class="cls-1" d="m1330.95,479.46l-35.49,42.35h37.45v11.02h-54.18v-9l.23-.35,34.91-41.95h-34.62v-11.14h51.93v8.77l-.23.29Z"/>
    <path class="cls-1" d="m1386.58,532.83l-.35-.63c-.23-.46-.42-.95-.58-1.47-.15-.52-.31-1.11-.46-1.76-.04-.23-.09-.48-.14-.75-.06-.27-.11-.52-.14-.75-.65.54-1.33,1.04-2.02,1.5-1.42,1-2.98,1.89-4.67,2.65-1.69.73-3.54,1.31-5.54,1.73-1,.19-2.02.35-3.06.46-1.04.12-2.1.17-3.17.17-.92,0-1.82-.03-2.68-.09-.87-.06-1.71-.15-2.54-.29-.83-.14-1.64-.3-2.42-.49-.79-.19-1.51-.4-2.16-.63-2.77-1-5.12-2.35-7.04-4.04-1.96-1.73-3.47-3.76-4.53-6.09s-1.59-4.82-1.59-7.47c0-3.42.69-6.46,2.08-9.12.69-1.31,1.54-2.52,2.54-3.63,1-1.12,2.15-2.12,3.46-3,2.54-1.77,5.71-3.1,9.52-3.98,1.31-.31,2.65-.56,4.04-.75s2.82-.34,4.3-.43c1.48-.1,3.03-.14,4.65-.14h10.27v-3.46c0-1.62-.27-3.04-.81-4.27-.54-1.23-1.35-2.29-2.42-3.17-.73-.61-1.57-1.12-2.51-1.53-.94-.4-2.04-.71-3.29-.92-1.25-.21-2.61-.32-4.07-.32-.54,0-1.05.02-1.53.06-.48.04-.96.09-1.44.14-.48.06-.94.14-1.39.23-.44.1-.86.2-1.24.32-.58.15-1.12.34-1.62.55-.5.21-.97.43-1.41.66-.44.23-.86.48-1.24.75-.39.27-.74.56-1.07.87s-.62.62-.89.95c-.27.33-.5.66-.69,1.01-.62,1-.92,2.06-.92,3.17v1.15h-13.04v-1.15c0-2.42.63-4.81,1.9-7.15,1.23-2.35,2.98-4.44,5.25-6.29s5.08-3.33,8.42-4.44c3.46-1.15,7.31-1.73,11.54-1.73,3.85,0,7.39.44,10.62,1.33,1.08.31,2.12.65,3.12,1.04.92.39,1.79.83,2.6,1.33.81.5,1.58,1.06,2.31,1.67,2.15,1.77,3.85,4,5.08,6.69.62,1.35,1.08,2.79,1.39,4.33.31,1.54.46,3.19.46,4.96v27.99c0,1.96.17,4.04.52,6.23.38,2.15.9,4,1.56,5.54l.12.23v2.25h-13.04Zm-23.66-11.14c1.46.46,3.19.69,5.19.69s3.81-.23,5.54-.69c1.73-.5,3.31-1.13,4.73-1.9,1.42-.77,2.65-1.63,3.69-2.6.92-.88,1.67-1.81,2.25-2.77v-10.73h-8.42c-1.62,0-3.15.06-4.59.17s-2.78.28-4.01.49c-1.23.21-2.36.47-3.38.78-1.02.31-1.95.67-2.8,1.1-3.12,1.58-4.67,3.98-4.67,7.21,0,1.27.23,2.46.69,3.58.12.27.24.53.38.78s.29.49.46.72c.17.23.37.45.58.66.21.21.43.41.66.61,1,.77,2.23,1.41,3.69,1.9Z"/>
    <path class="cls-1" d="m1411.92,502.31v-1.21c0-4.69.58-8.96,1.73-12.81,1.15-3.92,2.85-7.29,5.08-10.1,2.23-2.81,4.98-5,8.25-6.58,1.77-.77,3.65-1.35,5.66-1.73,2-.42,4.12-.63,6.35-.63,4.31,0,8.12.67,11.43,2.02.46.19.93.4,1.41.63.48.23.94.47,1.38.72.44.25.88.51,1.3.78.42.27.82.56,1.18.87.37.31.72.62,1.07.92l.29-3.69.06-1.1h12.06v86.44h-12.98v-28.22c-1.81,1.42-3.87,2.58-6.17,3.46-3.27,1.27-6.98,1.9-11.14,1.9-4.42,0-8.39-.81-11.89-2.42-3.27-1.58-6.02-3.81-8.25-6.69-2.19-2.85-3.89-6.19-5.08-10.04-1.15-3.85-1.73-8.02-1.73-12.52Zm12.98-1.21v1.15c0,2.88.31,5.62.92,8.19.23.85.5,1.65.81,2.42.31.77.65,1.49,1.04,2.16.38.67.83,1.34,1.33,1.99,1.38,1.81,3.13,3.25,5.25,4.33,2.08,1.08,4.58,1.62,7.5,1.62,3.58,0,6.54-.69,8.89-2.08,2.31-1.35,4.15-3.06,5.54-5.14v-28.39c-.65-.96-1.42-1.85-2.31-2.65-.46-.46-.96-.88-1.5-1.27-.54-.38-1.1-.73-1.67-1.04-1.23-.65-2.58-1.15-4.04-1.5-1.42-.38-3.02-.58-4.79-.58-1.5,0-2.88.14-4.13.4-1.25.27-2.39.67-3.43,1.21-2.15,1.12-3.92,2.6-5.31,4.44-.73.92-1.36,1.93-1.88,3.03-.52,1.1-.95,2.28-1.3,3.55-.62,2.58-.92,5.29-.92,8.14Z"/>
    <path class="cls-1" d="m1525.14,516.94c.12-.48.17-.97.17-1.47,0-1-.15-1.92-.46-2.77-.27-.81-.87-1.58-1.79-2.31-1.04-.77-2.52-1.5-4.44-2.19-1-.35-2.16-.69-3.49-1.04-1.33-.35-2.82-.67-4.47-.98-3.85-.69-7.33-1.52-10.44-2.48-.42-.15-.86-.31-1.3-.46-.44-.15-.85-.31-1.21-.46-.37-.15-.73-.32-1.1-.49-.37-.17-.72-.35-1.07-.52-.35-.17-.68-.35-1.01-.52-.33-.17-.64-.36-.95-.55-.31-.19-.6-.4-.87-.63-2.08-1.42-3.69-3.13-4.85-5.13-1.12-2-1.67-4.33-1.67-6.98s.6-4.94,1.79-7.21c1.15-2.27,2.79-4.25,4.91-5.94,2.12-1.69,4.73-3.02,7.85-3.98.85-.27,1.7-.5,2.57-.69.87-.19,1.75-.36,2.65-.49.9-.13,1.83-.23,2.77-.29.94-.06,1.91-.09,2.91-.09,4.23,0,8.02.54,11.37,1.62,1.12.35,2.14.74,3.06,1.18.92.44,1.8.93,2.62,1.47.83.54,1.61,1.12,2.34,1.73,2.15,1.88,3.81,4.09,4.96,6.61,1.15,2.52,1.73,5.2,1.73,8.05v1.15h-13.04v-1.15c0-1.12-.27-2.23-.81-3.35-.54-1.15-1.37-2.19-2.48-3.12-1.12-.92-2.48-1.67-4.1-2.25-1.62-.58-3.5-.87-5.66-.87-1.19,0-2.27.06-3.23.17-.96.12-1.85.29-2.65.52-1.54.46-2.79,1.06-3.75,1.79-.31.23-.6.48-.87.75s-.5.54-.69.81-.37.56-.52.87c-.42.89-.63,1.81-.63,2.77,0,.5.04.96.12,1.38.08.42.21.81.4,1.15.31.69.96,1.35,1.96,1.96,1.08.65,2.58,1.27,4.5,1.85.5.15,1.04.3,1.62.43.58.13,1.19.28,1.85.43.65.15,1.35.31,2.08.46.73.15,1.5.31,2.31.46,4.23.89,7.88,1.87,10.96,2.94,2.92,1.12,5.37,2.42,7.33,3.92s3.44,3.25,4.44,5.25c.46,1,.82,2.08,1.07,3.23.25,1.15.38,2.37.38,3.63,0,.92-.07,1.83-.2,2.71-.14.89-.34,1.74-.61,2.57-.27.83-.62,1.62-1.04,2.39-1.19,2.35-2.92,4.35-5.19,6-.73.54-1.52,1.04-2.37,1.5-.85.46-1.73.89-2.65,1.27-.92.38-1.94.73-3.06,1.04-3.35.92-7.08,1.38-11.19,1.38-4.69,0-8.85-.6-12.46-1.79-3.39-1.23-6.21-2.85-8.48-4.85-2.27-2-4-4.3-5.19-6.9s-1.79-5.26-1.79-7.99v-1.15h12.93l.06,1.1c.04,1,.18,1.91.43,2.74.25.83.59,1.57,1.01,2.22.46.65.98,1.25,1.56,1.79.58.54,1.23,1.02,1.96,1.44,1.42.85,3,1.44,4.73,1.79,1.73.38,3.48.58,5.25.58,1.15,0,2.23-.05,3.23-.14,1-.1,1.92-.26,2.77-.49.42-.08.83-.18,1.21-.32.38-.13.76-.27,1.12-.4.37-.13.7-.28,1.01-.43.31-.15.6-.33.87-.52,1.08-.65,1.87-1.42,2.37-2.31.27-.46.46-.93.58-1.41Z"/>
    <path class="cls-1" d="m1569.35,455.28v15.12h11.66v10.56h-11.66v35.95c0,1.38.17,2.48.52,3.29.31.77.69,1.35,1.15,1.73.19.15.38.28.55.38.17.1.35.18.55.26.19.08.4.14.63.17.35.08.72.13,1.12.17.4.04.8.06,1.18.06.27,0,.55,0,.84-.03.29-.02.58-.05.87-.09.29-.04.59-.08.89-.12.96-.15,1.71-.29,2.25-.4l1.38-.29v10.5l-.87.23c-.42.12-.91.24-1.47.38-.56.13-1.18.28-1.88.43-1.42.27-3.14.4-5.13.4-1.04,0-2.05-.08-3.03-.23-.98-.15-1.95-.37-2.91-.63-1.92-.61-3.6-1.62-5.02-3-1.42-1.35-2.56-3.12-3.4-5.31-.81-2.19-1.21-4.85-1.21-7.96v-35.89h-11.37v-10.56h11.37v-15.12h12.98Z"/>
    <path class="cls-1" d="m1635.14,532.83l-.35-.63c-.23-.46-.42-.95-.58-1.47-.15-.52-.31-1.11-.46-1.76-.04-.23-.09-.48-.14-.75-.06-.27-.11-.52-.14-.75-.65.54-1.33,1.04-2.02,1.5-1.42,1-2.98,1.89-4.67,2.65-1.69.73-3.54,1.31-5.54,1.73-1,.19-2.02.35-3.06.46-1.04.12-2.1.17-3.17.17-.92,0-1.82-.03-2.68-.09-.87-.06-1.71-.15-2.54-.29-.83-.14-1.64-.3-2.42-.49-.79-.19-1.51-.4-2.16-.63-2.77-1-5.12-2.35-7.04-4.04-1.96-1.73-3.47-3.76-4.53-6.09s-1.59-4.82-1.59-7.47c0-3.42.69-6.46,2.08-9.12.69-1.31,1.54-2.52,2.54-3.63,1-1.12,2.15-2.12,3.46-3,2.54-1.77,5.71-3.1,9.52-3.98,1.31-.31,2.65-.56,4.04-.75s2.82-.34,4.3-.43c1.48-.1,3.03-.14,4.65-.14h10.27v-3.46c0-1.62-.27-3.04-.81-4.27-.54-1.23-1.35-2.29-2.42-3.17-.73-.61-1.57-1.12-2.51-1.53-.94-.4-2.04-.71-3.29-.92-1.25-.21-2.61-.32-4.07-.32-.54,0-1.05.02-1.53.06-.48.04-.96.09-1.44.14-.48.06-.94.14-1.39.23-.44.1-.86.2-1.24.32-.58.15-1.12.34-1.62.55-.5.21-.97.43-1.41.66-.44.23-.86.48-1.24.75-.39.27-.74.56-1.07.87s-.62.62-.89.95c-.27.33-.5.66-.69,1.01-.62,1-.92,2.06-.92,3.17v1.15h-13.04v-1.15c0-2.42.63-4.81,1.9-7.15,1.23-2.35,2.98-4.44,5.25-6.29s5.08-3.33,8.42-4.44c3.46-1.15,7.31-1.73,11.54-1.73,3.85,0,7.39.44,10.62,1.33,1.08.31,2.12.65,3.12,1.04.92.39,1.79.83,2.6,1.33.81.5,1.58,1.06,2.31,1.67,2.15,1.77,3.85,4,5.08,6.69.62,1.35,1.08,2.79,1.39,4.33.31,1.54.46,3.19.46,4.96v27.99c0,1.96.17,4.04.52,6.23.38,2.15.9,4,1.56,5.54l.12.23v2.25h-13.04Zm-23.66-11.14c1.46.46,3.19.69,5.19.69s3.81-.23,5.54-.69c1.73-.5,3.31-1.13,4.73-1.9,1.42-.77,2.65-1.63,3.69-2.6.92-.88,1.67-1.81,2.25-2.77v-10.73h-8.42c-1.62,0-3.15.06-4.59.17s-2.78.28-4.01.49c-1.23.21-2.36.47-3.38.78-1.02.31-1.95.67-2.8,1.1-3.12,1.58-4.67,3.98-4.67,7.21,0,1.27.23,2.46.69,3.58.12.27.24.53.38.78s.29.49.46.72c.17.23.37.45.58.66.21.21.43.41.66.61,1,.77,2.23,1.41,3.69,1.9Z"/>
    <path class="cls-1" d="m1675.43,470.4l.06,1.1.23,5.02c2-1.92,4.35-3.5,7.04-4.73,3.62-1.69,7.69-2.54,12.23-2.54,1.15,0,2.27.05,3.35.14,1.08.1,2.13.24,3.17.43,1,.19,1.92.44,2.77.75,1.35.42,2.58.97,3.69,1.64,1.12.67,2.14,1.49,3.09,2.45.94.96,1.77,2.04,2.48,3.23s1.3,2.52,1.76,3.98c1,2.88,1.5,6.35,1.5,10.39v40.56h-12.98v-40.39c0-2.23-.25-4.1-.75-5.6-.23-.77-.55-1.44-.95-2.02-.4-.58-.86-1.1-1.36-1.56-1-.88-2.27-1.54-3.81-1.96-1.58-.46-3.42-.69-5.54-.69-.5,0-.99.02-1.47.06-.48.04-.96.09-1.44.14-.48.06-.94.13-1.38.23-.44.1-.88.21-1.33.35s-.87.29-1.27.46c-.4.17-.81.36-1.21.55-.4.19-.8.4-1.18.63-1.31.81-2.48,1.75-3.52,2.83-1,1.04-1.85,2.21-2.54,3.52v43.45h-12.98v-62.43h12.35Z"/>
  </g>
</svg>